<?xml version="1.0" encoding="utf-8"?>
<!-- Generator: Adobe Illustrator 26.0.2, SVG Export Plug-In . SVG Version: 6.00 Build 0)  -->
<svg version="1.1" id="Layer_1" xmlns="http://www.w3.org/2000/svg" xmlns:xlink="http://www.w3.org/1999/xlink" x="0px" y="0px"
	 viewBox="0 0 300 300" style="enable-background:new 0 0 300 300;" xml:space="preserve">
<style type="text/css">
	.st0{opacity:0.3;fill:#FFFFFF;}
	.st1{fill:#FFFFFF;}
</style>
<g>
	<circle class="st0" cx="150" cy="150" r="150"/>
	<path class="st1" d="M209.2,71.2H90.8C79.3,71.2,70,80.6,70,92.1v115.8c0,11.5,9.3,20.9,20.9,20.9h118.4c11.5,0,20.9-9.3,20.9-20.9
		V92.1C230.1,80.6,220.7,71.2,209.2,71.2z M150,163.6c-29.1,0-53.6-22.7-55.8-51.7c-0.2-3,0.7-6,2.7-8.3c2-2.3,4.7-3.7,7.8-3.9
		c3-0.2,5.9,0.7,8.2,2.7c2.3,2,3.7,4.8,4,7.8c1.3,17.2,15.9,30.6,33.1,30.6c17.3,0,31.8-13.5,33.1-30.7c0.5-6.2,6-10.8,12.2-10.5
		c3,0.2,5.8,1.6,7.8,3.9c2,2.3,2.9,5.2,2.7,8.3C203.6,140.9,179.1,163.6,150,163.6z"/>
</g>
</svg>
